<svg height="45" viewBox="0 0 45 45" width="45" xmlns="http://www.w3.org/2000/svg"><g fill="#98d09a"><path d="m50.789 52.7a1.9 1.9 0 0 0 -1.019-1.378l-9.833-4.722c-1.325 2.608-3.057 5.856-5.4 9.793a6.164 6.164 0 0 1 -5.35 3 6.248 6.248 0 0 1 -5.4-3c-2.14-3.543-3.77-6.5-4.993-8.957l-5.5.886a1.905 1.905 0 0 0 -1.376.984l-4.178 9.1a1.707 1.707 0 0 0 .76 2.269l20.228 10.725a1.723 1.723 0 0 0 .866.2.9.9 0 0 0 .357-.049l17.272-3.445a1.778 1.778 0 0 0 1.325-2.461l-3.363-7.283 5.044-4.183a1.439 1.439 0 0 0 .56-1.479z" transform="translate(-7.568 -25.906)"/><path d="m41.221 31.419c3.033-5.153 8.315-14.648 8.315-18.656a10.421 10.421 0 0 0 -20.836 0c0 4.008 5.282 13.5 8.315 18.656a2.463 2.463 0 0 0 4.206 0zm-6.945-18.7a4.844 4.844 0 0 1 9.685 0 4.844 4.844 0 0 1 -9.685 0z" transform="translate(-17.918 -2.6)"/></g></svg>