<svg xmlns="http://www.w3.org/2000/svg" width="43.248" height="45.695" viewBox="0 0 43.248 45.695">
  <g id="ZA_Icon" data-name="ZA Icon" transform="translate(-104 -39.176)">
    <path id="Path_73" data-name="Path 73" d="M50.789,52.7a1.9,1.9,0,0,0-1.019-1.378L39.937,46.6c-1.325,2.608-3.057,5.856-5.4,9.793a6.164,6.164,0,0,1-5.35,3,6.248,6.248,0,0,1-5.4-3c-2.14-3.543-3.77-6.5-4.993-8.957l-5.5.886a1.905,1.905,0,0,0-1.376.984l-4.178,9.1A1.707,1.707,0,0,0,8.5,60.675L28.728,71.4a1.723,1.723,0,0,0,.866.2.9.9,0,0,0,.357-.049l17.272-3.445a1.778,1.778,0,0,0,1.325-2.461l-3.363-7.283,5.044-4.183A1.439,1.439,0,0,0,50.789,52.7Z" transform="translate(96.432 13.27)" fill="#98d09a"/>
    <path id="Path_74" data-name="Path 74" d="M41.221,31.419c3.033-5.153,8.315-14.648,8.315-18.656a10.421,10.421,0,0,0-20.836,0c0,4.008,5.282,13.5,8.315,18.656A2.463,2.463,0,0,0,41.221,31.419Zm-6.945-18.7a4.844,4.844,0,0,1,9.685,0,4.844,4.844,0,0,1-9.685,0Z" transform="translate(86.082 36.576)" fill="#98d09a"/>
  </g>
</svg>