<svg height="50" viewBox="0 0 100.855 50" width="100.855" xmlns="http://www.w3.org/2000/svg"><path d="m100.839 165.623-.382-4.666-1.557-4.157-2.887-3.559-3.8-1.074-1.454 1.006 2.095 2.708.191-1.82 2.477 1.329.218 3.775.674.175.718-1.128.67 1.391-.2 2.638-5.272 1.609-1.33.996-.865.1 1-.925-3.887.2-3.5-1.928-.622-4.436-3.038-.639-.674-.791 1.7-.718-1.455-2.143-2.3-4.056-1.609-1.609-2.526-1.071-.918-1.071-1.455.459 1.071.459.382.842-1.455.153-.382-.842-.459.459-.765-.611.536-.612-1.225-.073.842-1.071 1.3-.536-.689-1.914.612-1.148.23.919h1.225l-.536-.842.153-.612h1.071l.382-.689 1.148-.612-1.3-1.3 4.209-1.378 1.071-1.148v.917l.842-.23.382-1.3 1-.612v-1.075l-1 .306v-.84h-1.065l-.689 1.148-2.063.306.612-.689-.422-.141.394-.385-1.917-4.535.376-.144-.358-1.666h-1.03l-1.126-.723-4.2 1.318-.794 1.372-1.3-.137-2.129.8-.185 1.661-.549-.4-2.108 1.542h-55.512l-5.447 24.005h58.858l-.153 4.271h1.85v2.618l.731-1.295v-2.054h-1.822l.138-3.856 1.625-.826.842.689 6.048-2.756-.537-1.075.766-.612.843.842 1.3-.689h1l1.527 1.99.842-.306.459 2.143 3.732.569.279.437 1.382 1.626 2.78.585.6 4.29 4 2.205 2.084-.107-.334.311.289.631 2.167-.241 1.33-1.017 5.69-1.733.256-3.332-1.325-2.752-.816 1.281-.176-3.054-3.459-1.855 2.819.8 2.644 3.232 1.491 3.952.156 1.928-.191-.522-1.359 2.477 1.293 1.294c-.031.254-.1.763-.209 1.352-.114.913-.271 1.953-.342 2.419l-.269.058.609-2.778-.881-.882-10 1.348-.61.991-.5.059.21-.49-.586-.41-1.363 1.284-.566 1.7-4.126.359-.691.36.219-.549.251-3.2.664-1.823-1.694-2.19-3.949 4.443-2.734.379-2.185 2 1.376 1.572.712-.3-1.069-1.217 1.49-1.365 2.776-.385 3.548-3.984.908 1.174-.543 1.493-.247 3.179-.591 1.478.522.452 1.385-.8 4.521-.4.633-1.9 2.068-.243.614-1 9.3-1.254.343.344-.768 3.5 1.872-.4.039-.248s.23-1.46.38-2.669c.157-.846.231-1.53.234-1.559l.019-.173-.211-.211zm-34.112-29.666h-1.307l-.842-.306-.689 1.071-1 .689v1.455l-1.837-.23-.918-1h-1.3l-.766 1h-1.068l-1.223-1.836-1.451 1.148.153 1.531-.765.612.382.842-1.225.067-1.38-.685-.382 2.3 1.531.919-.459 1.455 1.837 2.3-1 .766v1.914l.842.23.153 1.914 1.914 1.914.19 1.406h-55.217l5.115-22.551h55.162l1.871-1.368 1.135.826.275-2.466 1.548-.583 1.6.168.889-1.537 3.6-1.13 1.018.655h.653l.1.476-.986.379.3 1.64.782-.432 1.427 3.376-.306.3-.177-.059-.306-.842-.612.23-.385-.842-3.75 1.76-.073 1.837-1.378-.459zm7.27-7.3-.272.15-.007-.042zm4.9 27.158-.019-.03.4-.925.842.612-.788.848zm13.427-1.822-.508-.656.537-.372.076.022zm6.922 10.83.321-.586.525 1.431zm-89.926 1.289-5.511-8.5h-3.368v18.063h3.138v-12.93l5.664 8.419h.073l5.664-8.5v12.936h3.138v-17.987h-3.291zm20.205-8.649-7.96 18.216h3.217l1.837-4.363h8.492l1.837 4.363h3.368l-7.883-18.216zm-1.684 11.021 3.059-7.194 3.138 7.194zm36.708-2.14-.306.255.031.6 2.182 2.963.28 1.466.833.474-.41-2.158a.357.357 0 0 0 -.065-.148zm-13.667-8.724h-7.121v18.059h3.217v-5.817h3.6c3.98 0 7.194-2.143 7.194-6.123v-.073c-.002-3.597-2.681-6.046-6.89-6.046zm3.674 6.122c0 1.914-1.531 3.218-3.9 3.218l-3.674-.006v-6.5h3.674c2.372 0 3.9 1.071 3.9 3.217zm15.23 9.331a6.136 6.136 0 0 1 -5.969-6.429v-.073a6.07 6.07 0 0 1 5.969-6.353 7.329 7.329 0 0 1 5.052 2.219l2.067-2.372a9.349 9.349 0 0 0 -7.044-2.832 9.182 9.182 0 0 0 -9.338 9.023q0 .157 0 .314v.073a9.1 9.1 0 0 0 8.86 9.338q.162 0 .324 0a9.343 9.343 0 0 0 7.347-3.218l-2.064-2.063a7.079 7.079 0 0 1 -5.205 2.373z" fill="#fff" transform="translate(.016 -125.99)"/></svg>