<svg xmlns="http://www.w3.org/2000/svg" width="100.855" height="50" viewBox="0 0 100.855 50">
  <path id="Path_216" data-name="Path 216" d="M100.839,165.623l-.382-4.666L98.9,156.8l-2.887-3.559-3.8-1.074-1.454,1.006,2.095,2.708.191-1.82,2.477,1.329.218,3.775.674.175.718-1.128.67,1.391-.2,2.638-5.272,1.609L91,164.846l-.865.1,1-.925-3.887.2-3.5-1.928-.622-4.436-3.038-.639-.674-.791,1.7-.718-1.455-2.143-2.3-4.056-1.609-1.609-2.526-1.071-.918-1.071-1.455.459,1.071.459.382.842-1.455.153-.382-.842-.459.459-.765-.611.536-.612-1.225-.073.842-1.071,1.3-.536-.689-1.914.612-1.148.23.919h1.225l-.536-.842.153-.612h1.071l.382-.689,1.148-.612-1.3-1.3,4.209-1.378,1.071-1.148v.917l.842-.23.382-1.3,1-.612v-1.075l-1,.306v-.84H78.431l-.689,1.148-2.063.306.612-.689-.422-.141.394-.385-1.917-4.535.376-.144-.358-1.666h-1.03l-1.126-.723-4.2,1.318-.794,1.372-1.3-.137-2.129.8-.185,1.661-.549-.4-2.108,1.542H5.431L-.016,156.16H58.842l-.153,4.271h1.85v2.618l.731-1.295V159.7H59.448l.138-3.856,1.625-.826.842.689,6.048-2.756-.537-1.075.766-.612.843.842,1.3-.689h1L73,153.407l.842-.306.459,2.143,3.732.569.279.437,1.382,1.626,2.78.585.6,4.29,4,2.205,2.084-.107-.334.311.289.631,2.167-.241,1.33-1.017L98.3,162.8l.256-3.332-1.325-2.752-.816,1.281-.176-3.054-3.459-1.855,2.819.8,2.644,3.232,1.491,3.952L99.89,163l-.191-.522-1.359,2.477,1.293,1.294c-.031.254-.1.763-.209,1.352-.114.913-.271,1.953-.342,2.419l-.269.058.609-2.778-.881-.882-10,1.348-.61.991-.5.059.21-.49-.586-.41L85.692,169.2l-.566,1.7L81,171.259l-.691.36.219-.549.251-3.2.664-1.823-1.694-2.19L75.8,168.3l-2.734.379-2.185,2,1.376,1.572.712-.3L71.9,170.734l1.49-1.365,2.776-.385L79.714,165l.908,1.174-.543,1.493-.247,3.179-.591,1.478.522.452,1.385-.8,4.521-.4.633-1.9,2.068-.243.614-1,9.3-1.254.343.344-.768,3.5,1.872-.4.039-.248s.23-1.46.38-2.669c.157-.846.231-1.53.234-1.559l.019-.173-.211-.211ZM66.727,135.957H65.42l-.842-.306-.689,1.071-1,.689v1.455l-1.837-.23-.918-1h-1.3l-.766,1H57L55.777,136.8l-1.451,1.148.153,1.531-.765.612.382.842L52.871,141l-1.38-.685-.382,2.3,1.531.919-.459,1.455,1.837,2.3-1,.766v1.914l.842.23.153,1.914,1.914,1.914.19,1.406H.9l5.115-22.551H61.177l1.871-1.368,1.135.826.275-2.466,1.548-.583,1.6.168.889-1.537,3.6-1.13,1.018.655h.653l.1.476-.986.379.3,1.64.782-.432,1.427,3.376-.306.3-.177-.059-.306-.842-.612.23-.385-.842-3.75,1.76-.073,1.837-1.378-.459Zm7.27-7.3-.272.15-.007-.042Zm4.9,27.158-.019-.03.4-.925.842.612-.788.848Zm13.427-1.822-.508-.656.537-.372.076.022Zm6.922,10.83.321-.586.525,1.431ZM43.761,175.683v0h0ZM9.32,166.112l-5.511-8.5H.441v18.063H3.579V162.745l5.664,8.419h.073l5.664-8.5V175.6h3.138V157.613H14.827Zm20.205-8.649-7.96,18.216h3.217l1.837-4.363h8.492l1.837,4.363h3.368l-7.883-18.216Zm-1.684,11.021L30.9,161.29l3.138,7.194Zm36.708-2.14-.306.255.031.6,2.182,2.963.28,1.466.833.474-.41-2.158a.357.357,0,0,0-.065-.148ZM50.882,157.62H43.761v18.059h3.217v-5.817h3.6c3.98,0,7.194-2.143,7.194-6.123v-.073C57.77,160.069,55.091,157.62,50.882,157.62Zm3.674,6.122c0,1.914-1.531,3.218-3.9,3.218l-3.674-.006v-6.5h3.674c2.372,0,3.9,1.071,3.9,3.217Zm15.23,9.331a6.136,6.136,0,0,1-5.969-6.429v-.073a6.07,6.07,0,0,1,5.969-6.353,7.329,7.329,0,0,1,5.052,2.219l2.067-2.372a9.349,9.349,0,0,0-7.044-2.832,9.182,9.182,0,0,0-9.338,9.023q0,.157,0,.314v.073a9.1,9.1,0,0,0,8.86,9.338q.162,0,.324,0h0a9.343,9.343,0,0,0,7.347-3.218L74.99,170.7A7.079,7.079,0,0,1,69.785,173.073Z" transform="translate(0.016 -125.99)" fill="#fff"/>
</svg>
